<svg xmlns="http://www.w3.org/2000/svg" viewBox="0 0 100 100" fill="none">
  <rect width="100" height="100" rx="22" fill="#fff" stroke="#c97040" stroke-width="5"/>
  <g stroke="#c97040" stroke-width="1.6">
    <!-- Outer 12-pointed star -->
    <polygon fill="none" stroke-linejoin="round"
      points="50,8 58.5,16.5 70,13.5 73.5,25 84.5,29 81.5,41 91,50 81.5,59 84.5,71 73.5,75 70,86.5 58.5,83.5 50,92 41.5,83.5 30,86.5 26.5,75 15.5,71 18.5,59 9,50 18.5,41 15.5,29 26.5,25 30,13.5 41.5,16.5"/>
    <!-- Outer ring -->
    <circle cx="50" cy="50" r="30"/>
    <!-- 12 spokes -->
    <line x1="50" y1="20" x2="50" y2="40"/>
    <line x1="50" y1="20" x2="50" y2="40" transform="rotate(30,50,50)"/>
    <line x1="50" y1="20" x2="50" y2="40" transform="rotate(60,50,50)"/>
    <line x1="50" y1="20" x2="50" y2="40" transform="rotate(90,50,50)"/>
    <line x1="50" y1="20" x2="50" y2="40" transform="rotate(120,50,50)"/>
    <line x1="50" y1="20" x2="50" y2="40" transform="rotate(150,50,50)"/>
    <line x1="50" y1="20" x2="50" y2="40" transform="rotate(180,50,50)"/>
    <line x1="50" y1="20" x2="50" y2="40" transform="rotate(210,50,50)"/>
    <line x1="50" y1="20" x2="50" y2="40" transform="rotate(240,50,50)"/>
    <line x1="50" y1="20" x2="50" y2="40" transform="rotate(270,50,50)"/>
    <line x1="50" y1="20" x2="50" y2="40" transform="rotate(300,50,50)"/>
    <line x1="50" y1="20" x2="50" y2="40" transform="rotate(330,50,50)"/>
    <!-- Inner ring -->
    <circle cx="50" cy="50" r="15"/>
    <!-- Hub -->
    <circle cx="50" cy="50" r="7" fill="#c97040" fill-opacity="0.2" stroke-width="1.5"/>
  </g>
  <circle cx="50" cy="50" r="3.5" fill="#c97040"/>
</svg>
